<svg width="36" height="36" viewBox="0 0 36 36" fill="none" xmlns="http://www.w3.org/2000/svg">
<path d="M29.4962 26.3792C29.081 27.398 28.5681 28.3695 27.9654 29.2787C27.1602 30.4893 26.499 31.3258 25.9923 31.7915C25.2051 32.5522 24.3595 32.9437 23.4554 32.9658C22.8076 32.9658 22.025 32.7716 21.1134 32.377C20.1988 31.984 19.3592 31.7915 18.59 31.7915C17.7848 31.7915 16.9212 31.984 15.9961 32.377C15.0725 32.7716 14.3259 32.9784 13.7546 32.9973C12.8895 33.0368 12.0244 32.6359 11.1622 31.7915C10.612 31.2864 9.92378 30.4183 9.09764 29.1903C8.21303 27.8818 7.48585 26.3586 6.9161 24.6271C6.30587 22.7536 6 20.9416 6 19.1864C6 17.1771 6.41232 15.4425 7.23846 13.9903C7.86331 12.8499 8.75662 11.8981 9.83232 11.2266C10.8931 10.5568 12.104 10.1962 13.3408 10.1817C14.0305 10.1817 14.9346 10.4058 16.0546 10.8478C17.1746 11.2897 17.8943 11.5138 18.2077 11.5138C18.4446 11.5138 19.2407 11.2503 20.5961 10.7278C21.8751 10.2432 22.9546 10.0428 23.8392 10.1217C26.2381 10.3253 28.0389 11.3197 29.2368 13.1128C27.0928 14.4812 26.0327 16.3958 26.0537 18.8534C26.0717 20.768 26.7329 22.3606 28.0284 23.6249C28.6011 24.2018 29.2693 24.6635 30 24.987C29.8411 25.4716 29.6731 25.934 29.4962 26.3792V26.3792ZM23.9981 3.60137C23.9981 5.10084 23.4764 6.50245 22.4403 7.79831C21.1869 9.33882 19.6725 10.2306 18.0307 10.0901C18.0093 9.90158 17.9987 9.71182 17.9993 9.52192C17.9993 8.08085 18.593 6.54033 19.653 5.2792C20.1808 4.64153 20.8525 4.10961 21.6666 3.6866C22.4793 3.26991 23.247 3.03946 23.9696 3C23.9891 3.20203 23.9981 3.40249 23.9981 3.60137V3.60137Z" fill="#383A3A"/>
</svg>
